<svg xmlns="http://www.w3.org/2000/svg" width="212" height="84" style="background: rgba(0, 0, 0, 0);" preserveAspectRatio="xMidYMid"><rect id="backgroundrect" width="100%" height="100%" x="0" y="0" fill="none" stroke="none" class="" style=""/><defs><filter id="editing-neon" x="-100%" y="-100%" width="300%" height="300%"><feFlood flood-color="#008dff" result="flood"/><feComposite operator="in" in="flood" in2="SourceAlpha" result="color"/><feFlood flood-color="#008dff" result="flood2"/><feComposite operator="in" in="flood2" in2="SourceAlpha" result="color2"/><feMorphology operator="dilate" radius="2" in="color" result="dilate"/><feGaussianBlur stdDeviation="6" in="color" result="blur1"/><feGaussianBlur stdDeviation="2.5" in="color" result="blur2"/><feGaussianBlur stdDeviation="1" in="SourceAlpha" result="blur3"/><feGaussianBlur stdDeviation="6" in="dilate" result="blur4"/><feConvolveMatrix in="color2" result="conv" order="3,3" divisor="1" kernelMatrix="1 1 1  1 1 1  1 1 1"/><feMerge><feMergeNode in="blur1"/><feMergeNode in="blur2"/><feMergeNode in="blur4"/><feMergeNode in="blur3"/><feMergeNode in="blur3"/><feMergeNode in="blur3"/><feMergeNode in="blur3"/><feMergeNode in="conv"/><feMergeNode in="SourceGraphic"/></feMerge></filter></defs><style>text {
  font-size: 64px;
  font-family: Arial Black;
  dominant-baseline: central;
  text-anchor: middle;
}</style><g class="currentLayer" style=""><title>Layer 1</title><g filter="url(#editing-neon)" id="svg_1" class=""><g id="svg_2"><path d="M23.2441872324085,60.059272734046914 L23.2441872324085,60.059272734046914 L23.2441872324085,60.059272734046914 Q26.26743057757792,60.059272734046914 29.511641874885953,59.34927278029427 L29.511641874885953,59.34927278029427 L29.511641874885953,59.34927278029427 Q32.75585317219402,58.649272825890236 35.296984621788255,57.049272930109595 L35.296984621788255,57.049272930109595 L35.296984621788255,57.049272930109595 Q37.83811607138246,55.449273034328954 37.83811607138246,53.39927316786001 L37.83811607138246,53.39927316786001 L37.83811607138246,53.39927316786001 Q37.83811607138246,53.07927318870389 37.76780808661108,52.819273205639526 L37.76780808661108,52.819273205639526 L37.76780808661108,52.819273205639526 Q37.446400156227625,50.70927334307881 34.68430075449478,49.29927343492212 L34.68430075449478,49.29927343492212 L34.68430075449478,49.29927343492212 Q31.92220135276191,47.89927352611406 28.28627414029902,46.89927359125116 L28.28627414029902,46.89927359125116 L28.28627414029902,46.89927359125116 Q24.660390925660614,45.90927365573689 21.084727700144626,44.69927373455277 L21.084727700144626,44.69927373455277 L21.084727700144626,44.69927373455277 Q17.519108472453105,43.47927381402004 15.048285007630241,41.04927397230319 L15.048285007630241,41.04927397230319 L15.048285007630241,41.04927397230319 Q12.567417544982916,38.61927413058634 12.567417544982916,34.969274368336755 L12.567417544982916,34.969274368336755 L12.567417544982916,34.969274368336755 Q12.567417544982916,30.299274672527012 15.178856979348552,26.299274933075417 L15.178856979348552,26.299274933075417 L15.178856979348552,26.299274933075417 Q17.780252415889684,22.29927519362382 21.928423517401207,19.639275366888487 L21.928423517401207,19.639275366888487 L21.928423517401207,19.639275366888487 Q26.06655062108826,16.979275540153175 30.726965611648417,15.259275652188993 L30.726965611648417,15.259275652188993 L30.726965611648417,15.259275652188993 Q35.38738060220858,13.529275764876175 40.08797158406669,12.949275802655695 L40.08797158406669,12.949275802655695 L40.08797158406669,12.949275802655695 Q42.85007098579955,12.569275827407793 45.29076245714896,12.569275827407793 L45.29076245714896,12.569275827407793 L45.29076245714896,12.569275827407793 Q56.278896077133496,12.569275827407793 56.278896077133496,19.799275356466566 L56.278896077133496,19.799275356466566 L56.278896077133496,19.799275356466566 Q56.278896077133496,23.57927511024831 52.68314485596855,27.099274880965737 L52.68314485596855,27.099274880965737 L52.68314485596855,27.099274880965737 Q49.087393634803576,30.619274651683135 44.26627467905166,30.619274651683135 L44.26627467905166,30.619274651683135 L44.26627467905166,30.619274651683135 Q43.81429477694994,30.619274651683135 43.58328282698684,30.45927466210508 L43.58328282698684,30.45927466210508 L43.58328282698684,30.45927466210508 Q43.36231487484818,30.299274672527012 43.36231487484818,30.099274685554434 L43.36231487484818,30.099274685554434 L43.36231487484818,30.099274685554434 Q43.36231487484818,29.979274693370883 43.42257886179508,29.819274703792814 L43.42257886179508,29.819274703792814 L43.42257886179508,29.819274703792814 Q43.492886846566485,29.65927471421476 43.65359081175821,29.559274720728475 L43.65359081175821,29.559274720728475 L43.65359081175821,29.559274720728475 Q43.81429477694994,29.45927472724218 44.005130735615104,29.3992747311504 L44.005130735615104,29.3992747311504 L44.005130735615104,29.3992747311504 Q44.19596669428029,29.339274735058623 44.45711063771687,29.339274735058623 L44.45711063771687,29.339274735058623 L44.45711063771687,29.339274735058623 Q47.731453928498354,29.339274735058623 50.694433286720866,26.869274895947264 L50.694433286720866,26.869274895947264 L50.694433286720866,26.869274895947264 Q53.647368647118896,24.409275056184534 53.647368647118896,20.759275293934945 L53.647368647118896,20.759275293934945 L53.647368647118896,20.759275293934945 Q53.647368647118896,18.89927541508995 52.84384882116028,17.58927550041956 L52.84384882116028,17.58927550041956 L52.84384882116028,17.58927550041956 Q52.04032899520162,16.27927558574916 50.624125301949505,15.539275633950602 L50.624125301949505,15.539275633950602 L50.624125301949505,15.539275633950602 Q49.207921608697376,14.809275681500697 47.57074996330664,14.489275702344564 L47.57074996330664,14.489275702344564 L47.57074996330664,14.489275702344564 Q45.93357831791586,14.169275723188424 44.005130735615104,14.169275723188424 L44.005130735615104,14.169275723188424 L44.005130735615104,14.169275723188424 Q43.04090694446473,14.169275723188424 42.10681514678779,14.229275719280203 L42.10681514678779,14.229275719280203 L42.10681514678779,14.229275719280203 Q41.17272334911088,14.299275714720615 40.27880754273187,14.419275706904152 L40.27880754273187,14.419275706904152 L40.27880754273187,14.419275706904152 Q34.172056865446145,15.189275656748595 28.79851802934767,17.529275504327785 L28.79851802934767,17.529275504327785 L28.79851802934767,17.529275504327785 Q23.435023191073675,19.859275352558324 19.768963985137333,24.059275078982527 L19.768963985137333,24.059275078982527 L19.768963985137333,24.059275078982527 Q16.10290477920099,28.249274806058075 16.10290477920099,33.369274472556114 L16.10290477920099,33.369274472556114 L16.10290477920099,33.369274472556114 Q16.10290477920099,36.43927427258523 17.840516402836556,38.64927412863223 L17.840516402836556,38.64927412863223 L17.840516402836556,38.64927412863223 Q19.578128026472157,40.85927398467925 22.179523463013282,41.879273918239406 L22.179523463013282,41.879273918239406 L22.179523463013282,41.879273918239406 Q24.780918899554422,42.899273851799556 27.87447022949521,43.85927378926795 L27.87447022949521,43.85927378926795 L27.87447022949521,43.85927378926795 Q30.95797756161153,44.81927372673632 33.68994496987093,45.459273685048586 L33.68994496987093,45.459273685048586 L33.68994496987093,45.459273685048586 Q36.42191237813038,46.09927364336084 38.41062394737802,47.44927355542575 L38.41062394737802,47.44927355542575 L38.41062394737802,47.44927355542575 Q40.409379514450144,48.789273468142035 40.730787444833624,50.70927334307881 L40.730787444833624,50.70927334307881 L40.791051431780524,51.47927329292324 L40.791051431780524,51.47927329292324 Q40.791051431780524,54.099273122264044 37.92851205180284,56.59927295942129 L37.92851205180284,56.59927295942129 L37.92851205180284,56.59927295942129 Q35.06597267182513,59.099272796578546 30.445733672562888,60.659272694964685 L30.445733672562888,60.659272694964685 L30.445733672562888,60.659272694964685 Q25.815450675476193,62.2292725926994 20.924023734952897,62.2292725926994 L20.924023734952897,62.2292725926994 L20.924023734952897,62.2292725926994 Q14.375337153389893,62.2292725926994 14.375337153389893,57.499272900797905 L14.375337153389893,57.499272900797905 L14.375337153389893,57.499272900797905 Q14.375337153389893,54.93927306754889 16.10290477920099,54.93927306754889 L16.10290477920099,54.93927306754889 L16.10290477920099,54.93927306754889 Q16.303784735690634,54.93927306754889 16.42431270958445,55.34927304084267 L16.42431270958445,55.34927304084267 L16.42431270958445,55.34927304084267 Q16.55488468130271,55.76927301348509 16.745720639967914,56.43927296984323 L16.745720639967914,56.43927296984323 L16.745720639967914,56.43927296984323 Q16.94660059645757,57.109272926201385 17.197700542069654,57.55927289688967 L17.197700542069654,57.55927289688967 L17.197700542069654,57.55927289688967 Q17.64968044417138,58.32927284673411 18.262364311464864,58.839272813514185 L18.262364311464864,58.839272813514185 L18.262364311464864,58.839272813514185 Q18.875048178758313,59.34927278029427 19.63839201341905,59.60927276335863 L19.63839201341905,59.60927276335863 L19.63839201341905,59.60927276335863 Q20.411779845904242,59.85927274707436 21.285607656634276,59.959272740560635 L21.285607656634276,59.959272740560635 L21.285607656634276,59.959272740560635 Q22.149391469539836,60.059272734046914 23.2441872324085,60.059272734046914 zM63.67127847595309,34.009274430868366 L63.67127847595309,34.009274430868366 L63.67127847595309,34.009274430868366 Q59.69385533745776,36.30927428105306 56.11819211194177,40.179274028972465 L56.11819211194177,40.179274028972465 L56.11819211194177,40.179274028972465 Q52.55257288425024,44.05927377624053 52.55257288425024,45.26927369742464 L52.55257288425024,45.26927369742464 L52.55257288425024,45.26927369742464 Q52.55257288425024,47.579273546957936 54.551328451322405,51.02927332223494 L54.551328451322405,51.02927332223494 L54.551328451322405,51.02927332223494 Q56.540040020570046,54.48927309686057 58.08681568554046,55.76927301348509 L58.08681568554046,55.76927301348509 L58.08681568554046,55.76927301348509 Q59.3021394223029,56.789272947045234 59.3021394223029,57.42927290535749 L59.3021394223029,57.42927290535749 L59.3021394223029,57.42927290535749 Q59.3021394223029,57.81927287995403 58.729631546307374,57.81927287995403 L58.729631546307374,57.81927287995403 L58.729631546307374,57.81927287995403 Q57.44399982477354,57.81927287995403 55.766652188084876,56.05927299459532 L55.766652188084876,56.05927299459532 L55.766652188084876,56.05927299459532 Q54.09934854922068,54.29927310923662 52.90411280810716,52.469273228437515 L52.90411280810716,52.469273228437515 L52.90411280810716,52.469273228437515 Q51.71892106481816,50.64927334698704 50.433289343284315,48.27927350136197 L50.433289343284315,48.27927350136197 L49.087393634803576,45.90927365573689 L49.087393634803576,45.90927365573689 Q46.31525023524624,53.529273159392204 46.19472226135244,55.50927303042073 L46.19472226135244,55.50927303042073 L46.19472226135244,55.50927303042073 Q46.19472226135244,55.95927300110903 44.99948652023895,56.94927293662331 L44.99948652023895,56.94927293662331 L44.99948652023895,56.94927293662331 Q43.81429477694994,57.93927287213759 43.10117093141163,57.93927287213759 L43.10117093141163,57.93927287213759 L43.10117093141163,57.93927287213759 Q42.65923502713437,57.93927287213759 42.65923502713437,57.36927290926572 L42.65923502713437,57.36927290926572 L42.65923502713437,57.36927290926572 Q42.65923502713437,57.109272926201385 42.98064295751782,56.14927298873299 L42.98064295751782,56.14927298873299 L42.98064295751782,56.14927298873299 Q44.778518568100324,51.66927328054719 46.44582220696452,46.70927360362721 L46.44582220696452,46.70927360362721 L46.44582220696452,46.70927360362721 Q48.12316984365319,41.749273926707225 50.172145399847764,35.25927434944699 L50.172145399847764,35.25927434944699 L50.172145399847764,35.25927434944699 Q52.231164953866795,28.75927477283814 53.265696729788544,25.689274972809052 L53.265696729788544,25.689274972809052 L53.265696729788544,25.689274972809052 Q53.51679667540063,24.91927502296461 53.51679667540063,24.539275047716707 L53.51679667540063,24.539275047716707 L53.51679667540063,24.539275047716707 Q53.51679667540063,24.279275064652364 53.4264006949803,24.059275078982527 L53.4264006949803,24.059275078982527 L53.4264006949803,24.059275078982527 Q53.325960716735466,23.829275093964043 53.325960716735466,23.699275102431866 L53.325960716735466,23.699275102431866 L53.325960716735466,23.699275102431866 Q53.325960716735466,23.449275118716137 53.51679667540063,22.869275156495675 L53.51679667540063,22.869275156495675 L53.51679667540063,22.869275156495675 Q54.99326435559965,18.779275422906412 56.0277961315214,17.459275508887373 L56.0277961315214,17.459275508887373 L56.0277961315214,17.459275508887373 Q57.05228390961871,16.14927559421697 59.17156745058462,16.14927559421697 L59.17156745058462,16.14927559421697 L59.17156745058462,16.14927559421697 Q60.07552725478811,16.14927559421697 60.13579124173502,16.729275556437454 L60.13579124173502,16.729275556437454 L60.13579124173502,16.729275556437454 Q56.278896077133496,24.469275052276313 53.868336599257546,30.619274651683135 L53.868336599257546,30.619274651683135 L53.868336599257546,30.619274651683135 Q51.45777712138158,36.759274251741346 49.599637523852195,44.17927376842406 L49.599637523852195,44.17927376842406 L52.55257288425024,41.559273939083276 L52.55257288425024,41.559273939083276 Q55.51555224247279,38.939274109742485 58.729631546307374,36.14927429147498 L58.729631546307374,36.14927429147498 L58.729631546307374,36.14927429147498 Q61.943710850141954,33.369274472556114 62.385646754419255,32.97927449795958 L62.385646754419255,32.97927449795958 L62.385646754419255,32.97927449795958 Q64.12325837805481,31.699274581335068 65.02721818225831,31.699274581335068 L65.02721818225831,31.699274581335068 L65.02721818225831,31.699274581335068 Q65.40889009958866,31.699274581335068 65.40889009958866,31.959274564399436 L65.40889009958866,31.959274564399436 L65.40889009958866,31.959274564399436 Q65.40889009958866,32.65927451880346 63.67127847595309,34.009274430868366 zM83.40773420106241,31.76927457677548 L83.40773420106241,31.76927457677548 L83.40773420106241,31.76927457677548 Q83.5985701597276,32.089274555931596 83.5985701597276,32.46927453117951 L83.5985701597276,32.46927453117951 L83.5985701597276,32.46927453117951 Q83.5985701597276,35.02927436442854 77.97393137801707,42.77927385961601 L77.97393137801707,42.77927385961601 L77.97393137801707,42.77927385961601 Q72.3492925963065,50.519273355454864 68.94437733380674,54.48927309686057 L68.94437733380674,54.48927309686057 L68.94437733380674,54.3592731053284 L68.94437733380674,54.3592731053284 Q68.88411334685982,54.3592731053284 68.78367336861498,54.86927307210848 L68.78367336861498,54.86927307210848 L68.78367336861498,54.86927307210848 Q68.69327738819466,55.37927303888855 68.49239743170497,56.14927298873299 L68.49239743170497,56.14927298873299 L68.49239743170497,56.14927298873299 Q68.3015614730398,56.91927293857741 68.11072551437462,57.65927289037598 L68.11072551437462,57.65927289037598 L68.11072551437462,57.65927289037598 Q67.91988955570943,58.38927284282589 67.62861361879945,58.93927280700049 L67.62861361879945,58.93927280700049 L67.62861361879945,58.93927280700049 Q67.33733768188941,59.479272771826444 67.08623773627734,59.479272771826444 L67.08623773627734,59.479272771826444 L67.08623773627734,59.479272771826444 Q66.82509379284078,59.479272771826444 66.4032458842125,59.31927278224839 L66.4032458842125,59.31927278224839 L66.4032458842125,59.31927278224839 Q65.9914419734087,59.15927279267032 65.9211339886373,59.15927279267032 L65.9211339886373,59.15927279267032 L65.9211339886373,59.15927279267032 Q57.24311986828387,70.73927203838271 57.24311986828387,74.00927182538437 L57.24311986828387,74.00927182538437 L57.24311986828387,74.00927182538437 Q57.24311986828387,74.57927178825624 57.504263811720435,75.18927174852261 L57.504263811720435,75.18927174852261 L57.504263811720435,75.18927174852261 Q57.765407755157014,75.79927170878898 57.765407755157014,75.98927169641293 L57.765407755157014,75.98927169641293 L57.765407755157014,75.98927169641293 Q57.765407755157014,76.69927165016558 56.9920199226718,77.20927161694566 L56.9920199226718,77.20927161694566 L56.9920199226718,77.20927161694566 Q56.21863209018659,77.71927158372576 55.445244257701404,77.71927158372576 L55.445244257701404,77.71927158372576 L55.445244257701404,77.71927158372576 Q54.42075647960412,77.71927158372576 54.42075647960412,76.49927166319301 L54.42075647960412,76.49927166319301 L54.42075647960412,76.49927166319301 Q54.42075647960412,74.19927181300834 57.18285588133699,69.49927211915269 L57.18285588133699,69.49927211915269 L57.18285588133699,69.49927211915269 Q59.944955283069845,64.78927242594844 62.86775864999443,60.75927268845095 L62.86775864999443,60.75927268845095 L62.86775864999443,60.75927268845095 Q65.80060601474352,56.729272950953465 65.86087000169037,56.46927296788912 L65.86087000169037,56.46927296788912 L65.86087000169037,56.46927296788912 Q66.56394984940424,54.3592731053284 66.56394984940424,50.70927334307881 L66.56394984940424,50.70927334307881 L66.56394984940424,50.70927334307881 Q66.56394984940424,45.459273685048586 65.56959406478039,41.49927394299151 L65.56959406478039,41.49927394299151 L65.56959406478039,41.49927394299151 Q64.57523828015655,37.52927420158579 62.83762665652098,37.52927420158579 L62.83762665652098,37.52927420158579 L62.83762665652098,37.52927420158579 Q62.64679069785579,37.52927420158579 62.32538276747235,37.52927420158579 L62.32538276747235,37.52927420158579 L61.943710850141954,37.58927419767755 L61.943710850141954,37.58927419767755 Q61.682566906705404,37.58927419767755 61.682566906705404,37.26927421852143 L61.682566906705404,37.26927421852143 L61.682566906705404,37.26927421852143 Q61.682566906705404,36.759274251741346 63.09877059995752,35.739274318181195 L63.09877059995752,35.739274318181195 L63.09877059995752,35.739274318181195 Q63.28960655862274,35.60927432664902 64.19356636282619,34.32927441002451 L64.19356636282619,34.32927441002451 L64.19356636282619,34.32927441002451 Q65.0874821692052,33.04927449339999 65.53946207130693,33.04927449339999 L65.53946207130693,33.04927449339999 L65.53946207130693,33.04927449339999 Q66.88535777978768,33.04927449339999 67.95002154918289,37.17927422438376 L67.95002154918289,37.17927422438376 L67.95002154918289,37.17927422438376 Q69.0146853185781,41.29927395601892 69.0146853185781,46.3592736264252 L69.0146853185781,46.3592736264252 L69.0146853185781,46.3592736264252 Q69.0146853185781,46.869273593205264 68.97450932728016,47.89927352611406 L68.97450932728016,47.89927352611406 L68.97450932728016,47.89927352611406 Q68.94437733380674,48.919273459674216 68.94437733380674,49.429273426454294 L68.94437733380674,49.429273426454294 L68.94437733380674,49.429273426454294 Q68.94437733380674,50.45927335936309 69.45662122285536,50.45927335936309 L69.45662122285536,50.45927335936309 L69.45662122285536,50.45927335936309 Q70.94313290087885,50.45927335936309 75.40266793494936,43.66927380164399 L75.40266793494936,43.66927380164399 L75.40266793494936,43.66927380164399 Q79.87224696684439,36.88927424327352 79.87224696684439,35.02927436442854 L79.87224696684439,35.02927436442854 L79.87224696684439,35.02927436442854 Q79.87224696684439,34.64927438918063 79.55083903646091,34.64927438918063 L79.55083903646091,34.64927438918063 L79.55083903646091,34.64927438918063 Q79.42026706474263,34.64927438918063 79.09885913435915,34.779274380712806 L79.09885913435915,34.779274380712806 L79.09885913435915,34.779274380712806 Q78.77745120397572,34.89927437289636 78.58661524531053,34.89927437289636 L78.58661524531053,34.89927437289636 L78.58661524531053,34.89927437289636 Q78.26520731492705,34.89927437289636 78.07437135626188,34.57927439374023 L78.07437135626188,34.57927439374023 L78.07437135626188,34.57927439374023 Q78.07437135626188,33.74927444780403 79.94255495161575,32.72927451424386 L79.94255495161575,32.72927451424386 L79.94255495161575,32.72927451424386 Q81.80069454914512,31.699274581335068 82.95575429896068,31.699274581335068 L82.95575429896068,31.699274581335068 L82.95575429896068,31.699274581335068 Q83.27716222934413,31.699274581335068 83.40773420106241,31.76927457677548 zM147.95046422119103,45.659273672021165 L147.95046422119103,45.659273672021165 L147.95046422119103,45.659273672021165 Q144.86695688907466,49.879273397142605 139.7846939898862,53.01927319261211 L139.7846939898862,53.01927319261211 L139.7846939898862,53.01927319261211 Q134.70243109069776,56.14927298873299 129.72060816975414,57.55927289688967 L129.72060816975414,57.55927289688967 L129.72060816975414,57.55927289688967 Q124.73878524881053,58.96927280504636 120.43995417993168,58.96927280504636 L120.43995417993168,58.96927280504636 L120.43995417993168,58.96927280504636 Q116.70358698922402,58.96927280504636 114.71487541997635,57.8792728760458 L114.71487541997635,57.8792728760458 L114.71487541997635,57.8792728760458 Q112.72616385072865,56.789272947045234 112.20387596385552,55.12927305517283 L112.20387596385552,55.12927305517283 L112.20387596385552,55.12927305517283 Q112.20387596385552,55.05927305973242 112.1737439703821,54.96927306559476 L112.1737439703821,54.96927306559476 L112.1737439703821,54.96927306559476 Q112.14361197690869,54.86927307210848 112.08334798996177,54.809273076016694 L112.08334798996177,54.809273076016694 L112.08334798996177,54.809273076016694 Q111.8222040465252,55.12927305517283 111.14925619228481,56.17927298677887 L111.14925619228481,56.17927298677887 L111.14925619228481,56.17927298677887 Q110.47630833804445,57.23927291773356 110.02432843594269,57.74927288451363 L110.02432843594269,57.74927288451363 L110.02432843594269,57.74927288451363 Q109.06010464479233,58.779272817422424 108.41728878402542,58.779272817422424 L108.41728878402542,58.779272817422424 L108.41728878402542,58.779272817422424 Q107.38275700810362,58.779272817422424 107.38275700810362,56.219272984173394 L107.38275700810362,56.219272984173394 L107.38275700810362,56.219272984173394 Q107.38275700810362,38.61927413058634 116.3821790588405,19.929275347998736 L116.3821790588405,19.929275347998736 L116.3821790588405,19.929275347998736 Q116.00050714151013,19.989275344090515 113.69038764187908,20.46927531282471 L113.69038764187908,20.46927531282471 L113.69038764187908,20.46927531282471 Q111.37022414442347,20.94927528155889 109.63261252078787,21.339275256155435 L109.63261252078787,21.339275256155435 L109.63261252078787,21.339275256155435 Q107.96530888192368,21.719275231403333 105.58488139752117,22.549275177339542 L105.58488139752117,22.549275177339542 L105.58488139752117,22.549275177339542 Q103.20445391311866,23.379275123275747 100.12094658100236,24.699275037294765 L100.12094658100236,24.699275037294765 L100.12094658100236,24.699275037294765 Q97.03743924888602,26.009274951965168 94.91815570792008,27.829274833415653 L94.91815570792008,27.829274833415653 L94.91815570792008,27.829274833415653 Q92.79887216695417,29.65927471421476 92.79887216695417,31.449274597619343 L92.79887216695417,31.449274597619343 L92.79887216695417,31.449274597619343 Q92.79887216695417,32.46927453117951 93.63252398638625,33.55927446018008 L93.63252398638625,33.55927446018008 L93.63252398638625,33.55927446018008 Q94.46617580581832,34.64927438918063 95.43039959696874,35.21927435205249 L95.43039959696874,35.21927435205249 L95.43039959696874,35.21927435205249 Q96.52519535983738,36.24927428496128 96.77629530544945,36.62927426020918 L96.77629530544945,36.62927426020918 L96.52519535983738,36.62927426020918 L96.52519535983738,36.62927426020918 Q96.71603131850256,37.139274226989244 96.07321545773566,37.139274226989244 L96.07321545773566,37.139274226989244 L96.07321545773566,37.139274226989244 Q95.94264348601739,37.139274226989244 95.7518075273522,37.07927423089748 L95.7518075273522,37.07927423089748 L95.7518075273522,37.07927423089748 Q95.56097156868702,37.01927423480571 95.23956363830355,36.88927424327352 L95.23956363830355,36.88927424327352 L95.23956363830355,36.88927424327352 Q94.91815570792008,36.759274251741346 94.72731974925492,36.69927425564957 L94.72731974925492,36.69927425564957 L94.72731974925492,36.69927425564957 Q92.4774642365707,35.289274347492885 91.76434039103236,34.51927439764846 L91.76434039103236,34.51927439764846 L91.76434039103236,34.51927439764846 Q89.83589280873163,32.53927452661991 89.83589280873163,30.619274651683135 L89.83589280873163,30.619274651683135 L89.83589280873163,30.619274651683135 Q89.83589280873163,28.439274793682024 92.31676027137894,26.389274927213066 L92.31676027137894,26.389274927213066 L92.31676027137894,26.389274927213066 Q94.7875837362018,24.339275060744136 98.26280698347297,22.96927514998196 L98.26280698347297,22.96927514998196 L98.26280698347297,22.96927514998196 Q101.72798623291965,21.589275239871164 105.84602534095774,20.43927531477882 L105.84602534095774,20.43927531477882 L105.84602534095774,20.43927531477882 Q109.95402045117132,19.28927538968648 112.84669182462247,18.739275425511888 L112.84669182462247,18.739275425511888 L112.84669182462247,18.739275425511888 Q115.73936319807359,18.199275460685914 117.41671083476228,18.00927547306197 L117.41671083476228,18.00927547306197 L117.41671083476228,18.00927547306197 Q118.70234255629617,15.189275656748595 119.85740230611171,13.90927574012408 L119.85740230611171,13.90927574012408 L119.98797427783,13.90927574012408 L119.98797427783,13.90927574012408 Q121.78584988841243,13.45927576943577 123.33262555338285,13.45927576943577 L123.33262555338285,13.45927576943577 L123.33262555338285,13.45927576943577 Q124.03570540109664,13.45927576943577 124.03570540109664,13.719275752500131 L124.03570540109664,13.719275752500131 L124.03570540109664,13.719275752500131 Q122.4889297361263,15.259275652188993 121.33386998631067,17.749275489997622 L121.33386998631067,17.749275489997622 L121.33386998631067,17.749275489997622 Q121.46444195802903,17.749275489997622 121.65527791669413,17.749275489997622 L121.65527791669413,17.749275489997622 L121.65527791669413,17.749275489997622 Q127.2497847049313,17.749275489997622 132.07090366068314,18.739275425511888 L132.07090366068314,18.739275425511888 L132.07090366068314,18.739275425511888 Q136.89202261643507,19.739275360374787 140.32706987240834,21.499275245733497 L140.32706987240834,21.499275245733497 L140.32706987240834,21.499275245733497 Q143.77216112620602,23.259275131092195 146.24298459102886,25.61927497736864 L146.24298459102886,25.61927497736864 L146.24298459102886,25.61927497736864 Q148.7238520536762,27.98927482299372 149.93917579043867,30.709274645820805 L149.93917579043867,30.709274645820805 L149.93917579043867,30.709274645820805 Q151.16454352502558,33.42927446864789 151.16454352502558,36.37927427649345 L151.16454352502558,36.37927427649345 L151.16454352502558,36.37927427649345 Q151.16454352502558,41.179273963835364 147.95046422119103,45.659273672021165 zM110.21516439460788,54.41927310142016 L110.21516439460788,54.41927310142016 L110.21516439460788,54.41927310142016 Q110.27542838155478,54.3592731053284 110.7977162684279,53.74927314506203 L110.7977162684279,53.74927314506203 L110.7977162684279,53.74927314506203 Q111.30996015747655,53.13927318479566 111.6916320748069,52.85927320303405 L111.6916320748069,52.85927320303405 L111.6916320748069,52.85927320303405 Q112.08334798996177,52.5692732219238 112.4047559203452,52.5692732219238 L112.4047559203452,52.5692732219238 L112.4047559203452,52.5692732219238 Q112.52528389423901,52.5692732219238 112.65585586595728,52.629273218015584 L112.65585586595728,52.629273218015584 L112.65585586595728,52.629273218015584 Q112.78642783767557,52.699273213455974 112.84669182462247,52.819273205639526 L112.84669182462247,52.819273205639526 L112.84669182462247,52.819273205639526 Q112.91699980939384,52.9492731971717 112.97726379634074,53.07927318870389 L112.97726379634074,53.07927318870389 L112.97726379634074,53.07927318870389 Q113.04757178111211,53.20927318023605 113.107835768059,53.39927316786001 L113.107835768059,53.39927316786001 L113.107835768059,53.39927316786001 Q113.16809975500593,53.529273159392204 113.45937569191597,54.13927311965857 L113.45937569191597,54.13927311965857 L113.45937569191597,54.13927311965857 Q113.75065162882592,54.7392730805763 113.88122360054425,54.96927306559476 L113.88122360054425,54.96927306559476 L113.88122360054425,54.96927306559476 Q114.01179557226251,55.18927305126461 114.333203502646,55.63927302195291 L114.333203502646,55.63927302195291 L114.333203502646,55.63927302195291 Q114.65461143302943,56.089272992641206 115.0061513568863,56.30927297831104 L115.0061513568863,56.30927297831104 L115.0061513568863,56.30927297831104 Q115.35769128074324,56.53927296332951 115.80967118284497,56.729272950953465 L115.80967118284497,56.729272950953465 L115.80967118284497,56.729272950953465 Q117.41671083476228,57.29927291382532 119.66656634744649,57.29927291382532 L119.66656634744649,57.29927291382532 L119.66656634744649,57.29927291382532 Q123.52346151204802,57.29927291382532 128.37471246127342,55.66927301999878 L128.37471246127342,55.66927301999878 L128.37471246127342,55.66927301999878 Q133.2259634104987,54.03927312617226 137.50470648372854,51.37927329943695 L137.50470648372854,51.37927329943695 L137.50470648372854,51.37927329943695 Q141.77340555913386,48.72927347205027 144.0232610718181,45.849273659645114 L144.0232610718181,45.849273659645114 L144.0232610718181,45.849273659645114 Q148.78411604062308,39.76927405567868 148.78411604062308,34.51927439764846 L148.78411604062308,34.51927439764846 L148.78411604062308,34.51927439764846 Q148.78411604062308,29.84927470183871 145.0276608542664,26.329274931121304 L145.0276608542664,26.329274931121304 L145.0276608542664,26.329274931121304 Q141.26116167008522,22.8092751604039 135.4456869297095,21.13927526918284 L135.4456869297095,21.13927526918284 L135.4456869297095,21.13927526918284 Q129.6302121893338,19.479275377310426 122.81033766650972,19.479275377310426 L122.81033766650972,19.479275377310426 L122.81033766650972,19.479275377310426 Q121.5950139297473,19.479275377310426 120.36964619516033,19.539275373402205 L120.36964619516033,19.539275373402205 L120.36964619516033,19.539275373402205 Q111.8222040465252,34.389274406116265 110.27542838155478,54.16927311770444 L110.27542838155478,54.16927311770444 L110.27542838155478,54.16927311770444 Q110.27542838155478,54.3592731053284 110.21516439460788,54.41927310142016 zM168.58083575267932,21.3992752522472 L168.58083575267932,21.3992752522472 L168.58083575267932,21.3992752522472 Q168.58083575267932,22.22927519818341 167.36551201591686,23.50927511480792 L167.36551201591686,23.50927511480792 L167.36551201591686,23.50927511480792 Q166.14014428132995,24.78927503143243 165.81873635094647,25.499274985185096 L165.81873635094647,25.499274985185096 L165.81873635094647,25.499274985185096 Q164.98508453151436,27.609274847745816 164.02086074036401,27.85927483146154 L164.02086074036401,27.85927483146154 L164.02086074036401,27.85927483146154 Q162.73522901883018,27.85927483146154 162.73522901883018,25.749274968900828 L162.73522901883018,25.749274968900828 L162.73522901883018,25.749274968900828 Q162.73522901883018,24.409275056184534 164.7239405880778,22.8092751604039 L164.7239405880778,22.8092751604039 L164.7239405880778,22.8092751604039 Q166.72269615514992,21.20927526462325 168.19916383534903,21.20927526462325 L168.19916383534903,21.20927526462325 L168.19916383534903,21.20927526462325 Q168.52057176573246,21.20927526462325 168.58083575267932,21.3992752522472 zM164.91477654674304,32.33927453964733 L164.91477654674304,32.33927453964733 L164.91477654674304,32.33927453964733 Q164.7942485728492,32.53927452661991 164.05099273383746,33.93927443542798 L164.05099273383746,33.93927443542798 L164.05099273383746,33.93927443542798 Q163.30773689482572,35.34927434358465 162.79549300577708,36.37927427649345 L162.79549300577708,36.37927427649345 L162.79549300577708,36.37927427649345 Q162.28324911672843,37.399274210053605 161.37928931252497,39.37927408108215 L161.37928931252497,39.37927408108215 L161.37928931252497,39.37927408108215 Q160.48537350614595,41.36927395145932 159.77224966060763,43.15927383486392 L159.77224966060763,43.15927383486392 L159.77224966060763,43.15927383486392 Q159.0691698128938,44.9492737182685 158.2957819804086,47.44927355542575 L158.2957819804086,47.44927355542575 L158.2957819804086,47.44927355542575 Q157.52239414792342,49.93927339323439 156.94988627192785,52.439273230391635 L156.94988627192785,52.439273230391635 L156.94988627192785,52.439273230391635 Q156.87957828715653,52.629273218015584 156.87957828715653,52.9492731971717 L156.87957828715653,52.9492731971717 L156.87957828715653,52.9492731971717 Q156.87957828715653,53.719273147016146 157.52239414792342,53.719273147016146 L157.52239414792342,53.719273147016146 L157.52239414792342,53.719273147016146 Q157.91411006307823,53.719273147016146 159.6115456954159,52.75927320954775 L159.6115456954159,52.75927320954775 L159.6115456954159,52.75927320954775 Q161.31902532557805,51.79927327207937 161.83126921462664,51.79927327207937 L161.83126921462664,51.79927327207937 L161.83126921462664,51.79927327207937 Q162.28324911672843,51.79927327207937 162.3435131036753,52.05927325514372 L162.3435131036753,52.05927325514372 L162.3435131036753,52.05927325514372 Q162.3435131036753,52.819273205639526 159.0691698128938,54.899273070154365 L159.0691698128938,54.899273070154365 L159.0691698128938,54.899273070154365 Q155.7948265221123,56.97927293466919 154.56945878752538,56.97927293466919 L154.56945878752538,56.97927293466919 L154.56945878752538,56.97927293466919 Q153.34409105293847,56.97927293466919 153.34409105293847,55.82927300957685 L153.34409105293847,55.82927300957685 L153.34409105293847,55.82927300957685 Q153.34409105293847,55.259273046705 153.60523499637503,54.48927309686057 L153.60523499637503,54.48927309686057 L153.60523499637503,54.48927309686057 Q154.30831484408878,52.49927322648341 155.05157068310055,50.38927336392268 L155.05157068310055,50.38927336392268 L155.05157068310055,50.38927336392268 Q155.7948265221123,48.27927350136197 156.17649843944264,47.12927357626963 L156.17649843944264,47.12927357626963 L156.17649843944264,47.12927357626963 Q156.55817035677302,45.97927365117729 156.98001826540133,44.75927373064455 L156.98001826540133,44.75927373064455 L156.98001826540133,44.75927373064455 Q157.40186617402964,43.539273810111816 157.5927021326948,42.93927384919408 L157.5927021326948,42.93927384919408 L157.5927021326948,42.93927384919408 Q157.78353809135996,42.32927388892771 157.94424205655167,41.71927392866134 L157.94424205655167,41.71927392866134 L157.94424205655167,41.71927392866134 Q158.10494602174344,41.10927396839498 158.1652100086903,40.789273989238836 L158.1652100086903,40.789273989238836 L158.1652100086903,40.789273989238836 Q158.2355179934617,40.469274010082714 158.2355179934617,40.149274030926584 L158.2355179934617,40.149274030926584 L158.2355179934617,40.149274030926584 Q158.2355179934617,39.89927404721086 158.13507801521692,39.669274062192386 L158.13507801521692,39.669274062192386 L158.13507801521692,39.669274062192386 Q158.04468203479655,39.44927407652255 158.04468203479655,39.31927408499038 L158.04468203479655,39.31927408499038 L158.04468203479655,39.31927408499038 Q158.04468203479655,39.05927410192603 158.2355179934617,38.48927413905417 L158.2355179934617,38.48927413905417 L158.2355179934617,38.48927413905417 Q159.65172168671387,34.459274401556684 160.73647345175803,33.109274489491774 L160.73647345175803,33.109274489491774 L160.73647345175803,33.109274489491774 Q161.83126921462664,31.76927457677548 163.9505527555926,31.76927457677548 L163.9505527555926,31.76927457677548 L163.9505527555926,31.76927457677548 Q164.7942485728492,31.76927457677548 164.91477654674304,32.33927453964733 zM186.1276999520514,32.78927451033563 L186.1276999520514,32.78927451033563 L186.1276999520514,32.78927451033563 Q182.85335666126988,38.229274155989806 180.0209492747656,45.26927369742464 L180.0209492747656,45.26927369742464 L180.0209492747656,45.26927369742464 Q177.1985858860859,52.30927323885945 177.1985858860859,55.82927300957685 L177.1985858860859,55.82927300957685 L177.1985858860859,55.82927300957685 Q177.1985858860859,56.97927293466919 177.71082977513456,56.97927293466919 L177.71082977513456,56.97927293466919 L177.71082977513456,56.97927293466919 Q177.90166573379966,56.97927293466919 178.96632950319494,56.33927297635693 L178.96632950319494,56.33927297635693 L178.96632950319494,56.33927297635693 Q180.0209492747656,55.699273018044686 180.22182923125533,55.699273018044686 L180.22182923125533,55.699273018044686 L180.22182923125533,55.699273018044686 Q180.60350114858568,55.699273018044686 180.60350114858568,56.089272992641206 L180.60350114858568,56.089272992641206 L180.60350114858568,56.089272992641206 Q180.60350114858568,56.85927294248565 179.18729745533352,57.81927287995403 L179.18729745533352,57.81927287995403 L179.18729745533352,57.81927287995403 Q177.7710937620814,58.779272817422424 176.36493406665375,58.779272817422424 L176.36493406665375,58.779272817422424 L176.36493406665375,58.779272817422424 Q174.4967504712999,58.779272817422424 174.4967504712999,56.01927299720081 L174.4967504712999,56.01927299720081 L174.4967504712999,56.01927299720081 Q174.4967504712999,53.529273159392204 175.52123824939716,50.19927337629872 L175.52123824939716,50.19927337629872 L175.52123824939716,50.19927337629872 Q176.55577002531896,46.869273593205264 178.7353175532318,41.68927393061546 L178.7353175532318,41.68927393061546 L178.7353175532318,41.68927393061546 Q180.92490907896908,36.499274268677006 180.92490907896908,36.43927427258523 L180.92490907896908,36.43927427258523 L180.92490907896908,36.43927427258523 Q181.2463170093526,35.60927432664902 181.2463170093526,35.15927435596071 L181.2463170093526,35.15927435596071 L181.2463170093526,35.15927435596071 Q181.2463170093526,34.839274376804575 181.05548105068735,34.839274376804575 L181.05548105068735,34.839274376804575 L181.05548105068735,34.839274376804575 Q180.73407312030395,34.839274376804575 179.63927735743525,35.98927430189691 L179.63927735743525,35.98927430189691 L179.63927735743525,35.98927430189691 Q176.8771779557024,39.05927410192603 171.73465106956704,46.489273617957366 L171.73465106956704,46.489273617957366 L171.73465106956704,46.489273617957366 Q166.59212418343168,53.909273134640095 166.46155221171338,55.63927302195291 L166.46155221171338,55.63927302195291 L166.46155221171338,55.63927302195291 Q166.40128822476655,56.089272992641206 165.23618447712641,56.88927294053154 L165.23618447712641,56.88927294053154 L165.23618447712641,56.88927294053154 Q164.0811247273109,57.689272888421854 163.30773689482572,57.689272888421854 L163.30773689482572,57.689272888421854 L163.30773689482572,57.689272888421854 Q162.86580099054845,57.689272888421854 162.79549300577708,57.23927291773356 L162.79549300577708,57.23927291773356 L162.79549300577708,57.23927291773356 Q162.92606497749537,57.42927290535749 165.206052483653,50.83927333461098 L165.206052483653,50.83927333461098 L165.206052483653,50.83927333461098 Q167.48603998981065,44.24927376386448 168.45026378096108,41.29927395601892 L168.45026378096108,41.29927395601892 L168.45026378096108,41.29927395601892 Q168.7114077243976,40.53927400552311 168.7114077243976,40.149274030926584 L168.7114077243976,40.149274030926584 L168.7114077243976,40.149274030926584 Q168.7114077243976,39.89927404721086 168.61096774615277,39.669274062192386 L168.61096774615277,39.669274062192386 L168.61096774615277,39.669274062192386 Q168.52057176573246,39.44927407652255 168.52057176573246,39.31927408499038 L168.52057176573246,39.31927408499038 L168.52057176573246,39.31927408499038 Q168.52057176573246,39.05927410192603 168.7114077243976,38.48927413905417 L168.7114077243976,38.48927413905417 L168.7114077243976,38.48927413905417 Q170.18787540459667,34.389274406116265 171.2224071805184,33.07927449144588 L171.2224071805184,33.07927449144588 L171.2224071805184,33.07927449144588 Q172.24689495861566,31.76927457677548 174.36617849958162,31.76927457677548 L174.36617849958162,31.76927457677548 L174.36617849958162,31.76927457677548 Q175.19983031901376,31.76927457677548 175.33040229073202,32.33927453964733 L175.33040229073202,32.33927453964733 L175.33040229073202,32.33927453964733 Q170.0573034328784,43.09927383877214 169.03281565478107,47.69927353914147 L169.03281565478107,47.69927353914147 L169.03281565478107,47.69927353914147 Q179.63927735743525,30.67927464777491 185.29404813261925,30.67927464777491 L185.29404813261925,30.67927464777491 L185.29404813261925,30.67927464777491 Q186.57967985415308,30.67927464777491 186.57967985415308,31.50927459371112 L186.57967985415308,31.50927459371112 L186.57967985415308,31.50927459371112 Q186.57967985415308,32.089274555931596 186.1276999520514,32.78927451033563 zM200.8522007627436,36.69927425564957 L200.8522007627436,36.69927425564957 L200.8522007627436,36.69927425564957 Q201.23387268007397,38.679274126678116 201.23387268007397,39.89927404721086 L201.23387268007397,39.89927404721086 L201.23387268007397,39.89927404721086 Q201.23387268007397,41.29927395601892 200.26964888892363,42.29927389088182 L200.26964888892363,42.29927389088182 L200.26964888892363,42.29927389088182 Q199.30542509777325,43.2892738263961 197.7686934306273,43.69927379968987 L197.7686934306273,43.69927379968987 L197.7686934306273,43.69927379968987 Q196.2219177656569,44.11927377233229 195.00659402889445,44.27927376191037 L195.00659402889445,44.27927376191037 L195.00659402889445,44.27927376191037 Q193.78122629430754,44.43927375148843 192.68643053143884,44.43927375148843 L192.68643053143884,44.43927375148843 L192.68643053143884,44.43927375148843 Q192.04361467067196,44.43927375148843 191.24009484471327,44.409273753442534 L191.24009484471327,44.409273753442534 L191.24009484471327,44.409273753442534 Q190.4365750187546,44.37927375539665 190.37631103180772,44.37927375539665 L190.37631103180772,44.37927375539665 L190.37631103180772,44.37927375539665 Q188.25702749084184,49.74927340561044 188.25702749084184,52.819273205639526 L188.25702749084184,52.819273205639526 L188.25702749084184,52.819273205639526 Q188.25702749084184,55.37927303888855 190.18547507314256,55.37927303888855 L190.18547507314256,55.37927303888855 L190.18547507314256,55.37927303888855 Q191.5313707816233,55.37927303888855 193.32924639220576,53.68927314897026 L193.32924639220576,53.68927314897026 L193.32924639220576,53.68927314897026 Q195.12712200278824,51.98927325970332 196.48306170909345,50.29927336978502 L196.48306170909345,50.29927336978502 L196.48306170909345,50.29927336978502 Q197.82895741757423,48.599273480518086 198.09010136101074,48.599273480518086 L198.09010136101074,48.599273480518086 L198.09010136101074,48.599273480518086 Q198.54208126311255,48.599273480518086 198.54208126311255,49.10927344729818 L198.54208126311255,49.10927344729818 L198.54208126311255,49.10927344729818 Q198.54208126311255,50.89927333070276 195.00659402889445,54.06927312421815 L195.00659402889445,54.06927312421815 L195.00659402889445,54.06927312421815 Q191.4711067946764,57.23927291773356 189.47235122760424,57.23927291773356 L189.47235122760424,57.23927291773356 L189.47235122760424,57.23927291773356 Q187.86531157568695,57.23927291773356 186.54954786067964,56.249272982219274 L186.54954786067964,56.249272982219274 L186.54954786067964,56.249272982219274 Q185.23378414567242,55.259273046705 185.23378414567242,52.9492731971717 L185.23378414567242,52.9492731971717 L185.23378414567242,52.9492731971717 Q185.23378414567242,52.249273242767686 185.42462010433755,51.28927330529929 L185.42462010433755,51.28927330529929 L185.42462010433755,51.28927330529929 Q185.8766000064393,48.859273463582454 186.60981184762656,46.54927361404915 L186.60981184762656,46.54927361404915 L186.60981184762656,46.54927361404915 Q187.35306768663833,44.24927376386448 187.41333167358522,43.739273797084394 L187.41333167358522,43.739273797084394 L187.41333167358522,43.739273797084394 Q186.44910788243482,43.47927381402004 186.44910788243482,42.70927386417561 L186.44910788243482,42.70927386417561 L186.44910788243482,42.70927386417561 Q186.44910788243482,42.009273909771565 187.54390364530346,42.009273909771565 L187.54390364530346,42.009273909771565 L187.99588354740527,42.009273909771565 L187.99588354740527,42.009273909771565 Q190.56714699047288,36.949274239365295 190.94881890780326,36.17927428952086 L190.94881890780326,36.17927428952086 L190.94881890780326,36.17927428952086 Q192.7567385162102,32.78927451033563 197.82895741757423,32.78927451033563 L197.82895741757423,32.78927451033563 L197.82895741757423,32.78927451033563 Q200.01854894331152,32.78927451033563 200.8522007627436,36.69927425564957 zM198.54208126311255,39.76927405567868 L198.54208126311255,39.76927405567868 L198.54208126311255,39.76927405567868 Q198.54208126311255,38.16927415989804 198.22067333272904,37.01927423480571 L198.22067333272904,37.01927423480571 L198.22067333272904,37.01927423480571 Q197.8992654023456,35.859274310364746 197.4774174937173,35.41927433902506 L197.4774174937173,35.41927433902506 L197.4774174937173,35.41927433902506 Q197.05556958508905,34.969274368336755 196.61363368081172,34.969274368336755 L196.61363368081172,34.969274368336755 L196.61363368081172,34.969274368336755 Q195.32800195927788,34.969274368336755 193.56025834216888,37.71927418920974 L193.56025834216888,37.71927418920974 L193.56025834216888,37.71927418920974 Q191.79251472505987,40.469274010082714 190.94881890780326,42.579273872643434 L190.94881890780326,42.579273872643434 L190.94881890780326,42.579273872643434 Q191.0793908795215,42.579273872643434 191.983350683725,42.64927386808383 L191.983350683725,42.64927386808383 L191.983350683725,42.64927386808383 Q192.87726649010403,42.70927386417561 193.52008235087098,42.70927386417561 L193.52008235087098,42.70927386417561 L193.52008235087098,42.70927386417561 Q196.16165377871005,42.70927386417561 197.31671352852558,42.139273901303746 L197.31671352852558,42.139273901303746 L197.31671352852558,42.139273901303746 Q198.47177327834112,41.559273939083276 198.54208126311255,39.76927405567868 z" fill="none" stroke="#daffff" stroke-width="1" id="svg_3"/></g></g></g></svg>